<svg width="21" height="19" viewBox="0 0 21 19" fill="none" xmlns="http://www.w3.org/2000/svg">
<path d="M9.30316 10.4122C9.38836 11.2994 9.43299 11.7611 8.71615 12.5204C7.97513 13.3048 6.10699 14.759 4.19488 15.8677C3.39186 16.3333 2.30354 16.8976 1.47796 17.199C0.865963 17.4208 0.351338 17.5142 0.0955667 17.0694C-0.0693211 16.7826 0.0113375 16.5197 0.098001 16.2867C0.762908 14.4768 2.67859 11.0996 3.92629 8.90206C4.05385 8.67732 4.18547 8.44753 4.32017 8.21399C6.24072 4.88495 8.78869 0.809665 9.28969 0.156472C9.36223 0.0619476 9.4932 -0.0485475 9.61573 0.0228343C9.71473 0.0803636 9.71554 0.200475 9.7019 0.281798C9.69947 0.296466 9.66977 0.415761 9.65825 0.462697C8.83267 3.82726 8.92145 7.12452 9.30316 10.4122Z" fill="white"/>
<path d="M12.1097 11.4484C11.3019 11.0788 10.8814 10.8868 10.5851 9.88386C10.2792 8.8472 9.95898 6.49551 9.95898 4.2781C9.95898 3.34704 10.0163 2.1184 10.1693 1.24975C10.2839 0.606665 10.4608 0.112369 10.9722 0.112369C11.3019 0.112369 11.4884 0.313803 11.646 0.505785C12.8744 1.98883 14.829 5.34362 16.1004 7.52728C16.2304 7.75072 16.3628 7.98002 16.4969 8.21405C18.4077 11.5488 20.6481 15.8022 20.961 16.5646C21.0063 16.6749 21.036 16.8441 20.9133 16.915C20.814 16.9722 20.7101 16.9129 20.6468 16.8604C20.6355 16.8509 20.5473 16.7655 20.5126 16.732C18.0237 14.3317 15.1357 12.7603 12.1097 11.4484Z" fill="white"/>
<path d="M9.81235 13.3708C10.5349 12.8532 10.9107 12.5833 11.9239 12.8273C12.9709 13.0795 15.1592 13.9769 17.0713 15.0856C17.8743 15.551 18.9052 16.2153 19.5779 16.7826C20.0751 17.2039 20.413 17.6048 20.1574 18.0495C19.9925 18.3364 19.7254 18.3976 19.481 18.4389C17.588 18.7656 13.7174 18.7881 11.1985 18.8018C10.9409 18.8033 10.6769 18.8038 10.4081 18.8033C6.57675 18.7977 1.78835 18.6195 0.974457 18.5103C0.856633 18.4945 0.695965 18.4358 0.69629 18.2937C0.696452 18.1786 0.799507 18.118 0.876433 18.0893C0.89039 18.0841 1.00805 18.0502 1.0543 18.0367C4.36861 17.0724 7.16797 15.3465 9.81235 13.3708Z" fill="white"/>
</svg>
